# xmcd
#
# Track frame offsets: 
#        150
#        14387
#        31490
#        64652
#        97065
#        101340
#
# Disc length: 1723 seconds
#
# Revision: 0
# Processed by: cddbd v1.5.2PL0 Copyright (c) Steve Scherf et al.
# Submitted via: ExactAudioCopy v0.95b4
#
DISCID=4506b906
DTITLE=Nightwatchers - Eternal DJ
DYEAR=2002
DGENRE=
TTITLE0=video edit
TTITLE1=radio edit
TTITLE2=extended version
TTITLE3=armageddon mix
TTITLE4=intro
TTITLE5=midnight hour
EXTD=
EXTT0=
EXTT1=
EXTT2=
EXTT3=
EXTT4=
EXTT5=
PLAYORDER=
